<svg width="16" height="16" viewBox="0 0 16 16" fill="none" xmlns="http://www.w3.org/2000/svg">
<path d="M0 0H16V16H0V0Z" fill="white"/>
<path fill-rule="evenodd" clip-rule="evenodd" d="M7.78455 6.07874L5.91448 9.98959H6.65164L6.9853 9.23691H8.69242L9.01057 9.98959L9.77101 9.97407L7.88542 6.07874H7.78455ZM7.27239 8.70173L7.85436 7.36707L8.42858 8.70173H7.27239Z" fill="black"/>
<path d="M3.07445 7.03317L3.33828 6.42016C2.72785 6.14081 1.42165 5.83819 1.01039 6.90126C0.961244 7.15215 0.956071 7.72533 1.32853 8.01088C1.53069 8.16587 1.74308 8.26819 1.93713 8.36167C2.18999 8.48349 2.41171 8.5903 2.53904 8.77909C2.78734 9.2757 2.14329 9.60937 0.940552 9.03516V9.76456C1.12161 9.86285 1.61719 10.0455 2.15105 9.98959C2.81838 9.91975 3.3538 9.67145 3.36932 8.84892C3.3801 8.27714 2.88842 8.02784 2.43124 7.79604C2.23076 7.69439 2.03691 7.59611 1.89499 7.47547C1.42941 7.07973 2.00362 6.48224 3.07445 7.03317Z" fill="black"/>
<path fill-rule="evenodd" clip-rule="evenodd" d="M3.80386 6.26497V9.97407H4.57982V8.64717C4.82295 8.66787 5.36354 8.68143 5.62737 8.5463L5.6642 8.52752C5.97472 8.36951 6.33498 8.18619 6.37229 7.52203C6.41109 6.83142 6.01535 6.26497 5.15403 6.26497C4.88526 6.26497 4.64669 6.26265 4.44583 6.26071C4.12637 6.25761 3.90232 6.25544 3.80386 6.26497ZM4.58758 6.93894V8.0408H4.90573C5.16956 8.0408 5.51874 7.93217 5.54978 7.61403C5.58082 7.29588 5.55754 7.05533 5.20059 6.96222C5.12558 6.9467 4.89797 6.92031 4.58758 6.93894Z" fill="black"/>
<path d="M12.3239 7.05645L12.5955 6.42792C12.3601 6.29601 11.7342 6.06477 11.1134 6.19513C10.3375 6.35808 9.85637 6.95557 9.77101 7.82465C9.68566 8.69373 10.0038 9.45418 10.4383 9.718C10.8729 9.98183 11.3773 10.0361 11.7885 9.97407C12.1175 9.92441 12.3705 9.8344 12.4558 9.7956V9.12827C12.1662 9.24984 11.4859 9.44486 11.0824 9.25243C10.578 9.01188 10.4539 8.24367 10.6556 7.46771C10.8574 6.69175 11.6256 6.64519 12.3239 7.05645Z" fill="black"/>
<path d="M15.032 6.19513V6.83918H13.6819V7.65394H14.9389V8.29023H13.6819V9.26019H15.032V9.91975H12.8826V6.19513H15.032Z" fill="black"/>
</svg>
